<svg xmlns="http://www.w3.org/2000/svg"><symbol id="bg-zigzag-fill" viewBox="0 0 1150 34"><path fill="#FFF" d="M1121.252 0c-14.375 0-14.375 14-28.749 14s-14.374-14-28.748-14-14.374 14-28.748 14c-14.375 0-14.375-14-28.75-14-14.374 0-14.374 14-28.748 14S963.135 0 948.761 0s-14.374 14-28.749 14-14.375-14-28.749-14-14.374 14-28.749 14-14.375-14-28.75-14c-14.371 0-14.371 14-28.743 14-14.375 0-14.375-14-28.75-14-14.372 0-14.372 14-28.744 14-14.374 0-14.374-14-28.747-14s-14.373 14-28.747 14C675.66 14 675.66 0 661.287 0c-14.374 0-14.374 14-28.748 14-14.375 0-14.375-14-28.751-14-14.374 0-14.374 14-28.748 14S560.666 0 546.292 0s-14.374 14-28.748 14S503.17 0 488.796 0c-14.375 0-14.375 14-28.75 14-14.376 0-14.376-14-28.753-14-14.375 0-14.375 14-28.75 14S388.168 0 373.792 0c-14.375 0-14.375 14-28.75 14S330.666 0 316.291 0s-14.375 14-28.751 14c-14.376 0-14.376-14-28.753-14-14.374 0-14.374 14-28.747 14-14.375 0-14.375-14-28.75-14s-14.375 14-28.751 14c-14.377 0-14.377-14-28.754-14s-14.377 14-28.755 14c-14.378 0-14.378-14-28.756-14S71.896 14 57.518 14C43.139 14 43.139 0 28.759 0S14.38 14 0 14v20h1150V14c-14.374 0-14.374-14-28.748-14z"/></symbol><symbol id="bg-zigzag-line" viewBox="0 0 1150 23"><path fill="#E6E7E8" d="M1150 23c-9.017 0-13.728-4.589-17.514-8.276-3.412-3.323-5.877-5.724-11.234-5.724-5.358 0-7.823 2.401-11.235 5.724-3.786 3.688-8.497 8.276-17.514 8.276s-13.728-4.589-17.514-8.276c-3.412-3.323-5.877-5.724-11.234-5.724s-7.822 2.401-11.234 5.724c-3.786 3.688-8.497 8.276-17.514 8.276s-13.729-4.589-17.515-8.276C1014.08 11.401 1011.615 9 1006.257 9c-5.357 0-7.822 2.401-11.234 5.724-3.787 3.687-8.498 8.276-17.514 8.276s-13.728-4.589-17.514-8.276C956.583 11.401 954.118 9 948.761 9s-7.822 2.401-11.234 5.724C933.74 18.411 929.028 23 920.012 23s-13.729-4.589-17.515-8.276C899.085 11.401 896.62 9 891.263 9s-7.822 2.401-11.234 5.724C876.242 18.411 871.53 23 862.514 23s-13.729-4.589-17.515-8.276C841.587 11.401 839.122 9 833.764 9c-5.355 0-7.82 2.4-11.231 5.723-3.786 3.688-8.497 8.277-17.512 8.277-9.017 0-13.729-4.589-17.515-8.276C784.094 11.401 781.629 9 776.271 9c-5.356 0-7.821 2.401-11.232 5.723-3.786 3.688-8.497 8.277-17.513 8.277-9.017 0-13.729-4.589-17.514-8.277C726.602 11.401 724.137 9 718.779 9s-7.821 2.401-11.233 5.723C703.761 18.411 699.049 23 690.032 23c-9.016 0-13.727-4.589-17.512-8.276C669.109 11.401 666.645 9 661.287 9s-7.822 2.401-11.234 5.724C646.267 18.411 641.556 23 632.539 23s-13.729-4.589-17.515-8.276C611.612 11.401 609.147 9 603.788 9c-5.357 0-7.822 2.401-11.234 5.724C588.768 18.411 584.057 23 575.04 23c-9.016 0-13.728-4.589-17.514-8.276C554.115 11.401 551.65 9 546.292 9s-7.823 2.401-11.234 5.724C531.272 18.411 526.561 23 517.544 23s-13.729-4.589-17.514-8.276C496.619 11.401 494.153 9 488.796 9c-5.358 0-7.823 2.401-11.235 5.724-3.787 3.687-8.499 8.276-17.515 8.276-9.017 0-13.729-4.589-17.516-8.276C439.118 11.401 436.653 9 431.293 9c-5.358 0-7.823 2.401-11.235 5.724C416.272 18.411 411.56 23 402.543 23s-13.729-4.589-17.515-8.276C381.616 11.401 379.151 9 373.792 9c-5.358 0-7.823 2.401-11.235 5.724-3.786 3.687-8.498 8.276-17.515 8.276s-13.729-4.589-17.515-8.276C324.114 11.401 321.649 9 316.291 9s-7.824 2.401-11.236 5.724C301.269 18.411 296.556 23 287.539 23c-9.018 0-13.729-4.589-17.516-8.276C266.611 11.401 264.145 9 258.786 9c-5.357 0-7.822 2.401-11.234 5.724-3.785 3.687-8.497 8.276-17.513 8.276-9.017 0-13.729-4.589-17.515-8.276C209.112 11.401 206.647 9 201.289 9s-7.824 2.401-11.236 5.724C186.267 18.411 181.555 23 172.538 23c-9.018 0-13.73-4.589-17.517-8.276C151.609 11.401 149.144 9 143.784 9s-7.825 2.401-11.238 5.724c-3.787 3.687-8.5 8.276-17.517 8.276-9.018 0-13.73-4.589-17.517-8.276C94.099 11.401 91.633 9 86.273 9s-7.826 2.401-11.239 5.724C71.249 18.411 66.536 23 57.518 23 48.5 23 43.787 18.412 40 14.724 36.586 11.401 34.12 9 28.759 9s-7.827 2.401-11.24 5.724C13.732 18.411 9.019 23 0 23v-9c5.361 0 7.827-2.401 11.241-5.724C15.028 4.588 19.741 0 28.759 0S42.49 4.588 46.278 8.276C49.691 11.599 52.157 14 57.518 14c5.36 0 7.825-2.401 11.238-5.724C72.543 4.589 77.255 0 86.273 0s13.73 4.589 17.517 8.276c3.413 3.323 5.879 5.724 11.239 5.724s7.826-2.401 11.238-5.724C130.054 4.589 134.767 0 143.784 0s13.73 4.589 17.517 8.276c3.412 3.323 5.878 5.724 11.237 5.724 5.358 0 7.824-2.401 11.236-5.724C187.56 4.589 192.272 0 201.289 0c9.017 0 13.729 4.589 17.515 8.276 3.412 3.323 5.877 5.724 11.235 5.724 5.357 0 7.822-2.401 11.234-5.724C245.059 4.589 249.77 0 258.786 0c9.017 0 13.729 4.589 17.516 8.276C279.714 11.599 282.18 14 287.539 14s7.824-2.401 11.236-5.724C302.562 4.589 307.274 0 316.291 0c9.017 0 13.729 4.589 17.515 8.276 3.412 3.323 5.877 5.724 11.236 5.724 5.359 0 7.824-2.401 11.236-5.724C360.063 4.589 364.775 0 373.792 0s13.729 4.589 17.516 8.276C394.72 11.599 397.185 14 402.543 14s7.823-2.401 11.235-5.724C417.565 4.589 422.277 0 431.293 0c9.018 0 13.729 4.589 17.516 8.276 3.412 3.323 5.877 5.724 11.236 5.724 5.358 0 7.823-2.401 11.235-5.724C475.067 4.589 479.779 0 488.796 0c9.016 0 13.728 4.589 17.514 8.276 3.412 3.323 5.877 5.724 11.235 5.724 5.357 0 7.822-2.401 11.234-5.724C532.564 4.589 537.275 0 546.292 0c9.016 0 13.728 4.589 17.514 8.276C567.217 11.599 569.682 14 575.04 14c5.357 0 7.822-2.401 11.234-5.724C590.061 4.589 594.771 0 603.788 0c9.018 0 13.729 4.589 17.516 8.276 3.412 3.323 5.877 5.724 11.235 5.724 5.357 0 7.822-2.401 11.234-5.724C647.56 4.589 652.271 0 661.287 0s13.728 4.589 17.513 8.277C682.211 11.6 684.676 14 690.032 14c5.357 0 7.822-2.401 11.234-5.724C705.052 4.589 709.764 0 718.779 0s13.728 4.589 17.513 8.276c3.412 3.323 5.877 5.724 11.234 5.724 5.356 0 7.821-2.401 11.232-5.723C762.544 4.589 767.255 0 776.271 0c9.017 0 13.729 4.589 17.515 8.276 3.412 3.323 5.877 5.724 11.235 5.724 5.356 0 7.821-2.401 11.232-5.724C820.038 4.589 824.749 0 833.764 0c9.017 0 13.729 4.589 17.515 8.276C854.69 11.599 857.155 14 862.514 14s7.823-2.401 11.235-5.724C877.535 4.589 882.247 0 891.263 0c9.017 0 13.728 4.589 17.514 8.276 3.412 3.323 5.877 5.724 11.235 5.724s7.823-2.401 11.235-5.724C935.033 4.589 939.744 0 948.761 0s13.728 4.589 17.514 8.276c3.412 3.323 5.877 5.724 11.234 5.724s7.822-2.401 11.234-5.724C992.529 4.589 997.24 0 1006.257 0s13.729 4.589 17.515 8.276c3.412 3.323 5.877 5.724 11.235 5.724 5.357 0 7.822-2.401 11.234-5.724 3.786-3.688 8.497-8.276 17.514-8.276s13.728 4.589 17.514 8.276c3.412 3.323 5.877 5.724 11.234 5.724s7.822-2.401 11.234-5.724c3.786-3.688 8.498-8.276 17.515-8.276s13.728 4.589 17.514 8.276C1142.178 11.599 1144.643 14 1150 14v9z"/></symbol><symbol id="htmlacademy" viewBox="0 0 60 60"><path fill="#2E368F" d="M30.2 5H30L10.3 7.1v36.2L30 55l19.7-11.7V7.1L30.2 5zm17 36.8L30 52 12.8 41.8V27l17.1 10.2V39l-11.7-7v1.8L30 40.9v1.9l-11.8-7v1.8l11.8 7 11.9-7.1v-7.6l5.3-3.2v15.1zm-.1-17l-4.7 2.8-2.2 1.3-10.3-6.1v1.8l8.8 5.3h-.1l-.2.1-1.3.7-7.3-4.3v1.8l5.8 3.4-1.4.9-4.3-2.6v1.8l2.9 1.7-2.9 1.7-17-10.1 17-10.2 17.2 10zm.1-1.8L29.9 12.8 12.8 23V9.4L30 7.6l17.2 1.8V23z"/></symbol><symbol id="icon-cart" viewBox="264.205 370.961 20.294 18.849"><path d="M283.75 378.19h-3.151l-3.407-6.814a.75.75 0 1 0-1.341.671l3.071 6.143h-9.138l3.072-6.143a.75.75 0 0 0-1.341-.671l-3.407 6.814h-3.151a.75.75 0 0 0 0 1.5h.157l.855 2.991a.737.737 0 0 0-.316.595c0 .396.309.71.697.739l1.656 5.795h12.697l1.656-5.795a.745.745 0 0 0 .698-.739.738.738 0 0 0-.316-.596l.854-2.991h.157a.75.75 0 1 0-.002-1.499zm-4.181 10.121h-10.433l-1.224-4.284h12.881l-1.224 4.284zm1.653-5.785h-13.739l-.81-2.836h15.359l-.81 2.836z"/></symbol><symbol id="icon-fb" viewBox="56.519 49.996 14.962 27.718"><path d="M68.181 55.188c1.026.029 1.993 0 2.681-.3.391-.818.556-1.854.619-2.989-.19-.015-.062-.337-.207-.399-.029-.202-.278-.195-.309-.398-.277-.165-.457-.422-.723-.598-.727-.162-1.44-.335-2.164-.499-.849.044-1.895-.103-2.58.1-2.619-.04-3.997 1.12-5.259 2.392-.023.078-.003.197-.105.199-.574 1.587-.125 3.621-.204 5.581.099.436.107.958.204 1.395-.998.296-2.212.387-3.402.499-.317.324-.178 1.089-.206 1.693.085.583.278 1.06.413 1.595.211.193.596.396.825.498.065.029.071.082.103.1.506.268 1.451.008 2.268.1-.136 1.978.256 3.915 0 5.68.007.327.295.382.208.798-.001.963-.067 1.99.208 2.69-.287.455-.497.982-.415 1.794.122.016.114.157.105.299-.075.47.643.175.515.698.162.456-.428.184-.413.498v.896c.53.285 1.462.182 2.268.199.908-.419 2.188-.479 2.785-1.196.459.235.916-.014 1.238-.199-.018-.315.273-.333.205-.698-.004-.328-.173-.496-.103-.896v-2.89c-.206-2.293-.048-4.938-.309-7.176.888-.105 1.917-.075 2.578-.398.357-.451.377-1.23.516-1.895.177-.226.221-.583.206-.996.19-.213.068-.729.104-1.096-.141-.595-.168-1.3-.825-1.39-.884-.235-2.043.595-2.991.299.049-1.134-.293-2.342 0-3.388.746-.181 1.446-.4 2.166-.602zm-3.818 4.783c.117.254.254.486.414.698.079.022.203.003.205.101a10.319 10.319 0 0 0 3.096-.299c0 .998-.271 1.733-.518 2.492-.662.045-1.467.3-1.958.198-.276.165-.372.506-.62.698-.049.441.142.495 0 .797-.201.137-.055.611-.205.796v1.496c.085.281-.146.258-.104.497v3.488c-.085.281.146.258.104.498v2.989c.063.271-.132.791.103.896-.07.364-.412-.021-.824.1-.528.122-.926.369-1.548.4.117-.353.32-.622.311-1.097.049-.381-.365-.312-.516-.49.193-.644.562-1.117.722-1.793.197-.515.714-1.298.31-1.794-.522-.105-.521.293-.826.398-.022.077-.002.196-.103.199-.023.077-.003.196-.103.199.01.12-.151.062 0 0 .022-.078.002-.197.103-.199.023-.077.002-.197.103-.199v-.299c.368-.575.67-1.214.826-1.993.191-.28.283-.656.412-.997.156-.262.34-.869.104-1.195-.517.033-.796.295-.93.697-.32-.189.161-.434.104-.697.138-.231.169-.566.309-.797.202-.413.564-1.304 0-1.596-.438-.023-.612.207-.723.498-.214.191-.43.383-.516.698-.373-.07-.143-.727-.206-1.097-.067-.52.122-.899 0-1.195-.56-.799-2.026-.105-3.197-.299-.108-.307-.222-.984-.104-1.195 1.045-.088 2.479.201 3.197-.199.024-.078.003-.197.104-.199.094-.723-.271-1-.515-1.396.232-.806.04-2.02.104-2.989.233-.141.328-.414.515-.598.112-.955.673-1.476.722-2.49-.273.001-.607-.055-.619.199-.302-.114-.382.479-.515.199-.112-.541.246-.626.309-.997.599-.418 1.212-.82 1.856-1.195 1.741-.244 4.648-.449 6.086.198.051.616-.287.854-.207 1.496h-1.546c-1.092.24-1.987.672-2.991.997-.24.066-.276.331-.516.398-.036.396-.225.646-.311.996-.079 1.431.133 2.589.102 3.978z"/></symbol><symbol id="icon-feature-1" viewBox="8.014 4.35 31.972 37.301"><path d="M24 41.65c8.827 0 15.986-7.159 15.986-15.986C31.158 25.664 24 32.822 24 41.65zM12.641 20.78a4.442 4.442 0 0 0 4.44 4.441c.932 0 1.803-.294 2.513-.782l-.036.337c0 2.451 1.99 4.441 4.441 4.441s4.44-1.99 4.44-4.441l-.036-.337a4.396 4.396 0 0 0 2.514.782c2.451 0 4.44-1.99 4.44-4.441a4.418 4.418 0 0 0-2.54-3.997 4.434 4.434 0 0 0 2.54-3.997 4.441 4.441 0 0 0-6.954-3.659l.037-.337a4.441 4.441 0 0 0-8.881 0l.036.337a4.392 4.392 0 0 0-2.513-.781 4.442 4.442 0 0 0-4.44 4.44 4.42 4.42 0 0 0 2.54 3.997 4.42 4.42 0 0 0-2.541 3.997zM24 12.343a4.441 4.441 0 0 1 4.44 4.44 4.441 4.441 0 0 1-8.881 0c0-2.451 1.99-4.44 4.441-4.44zM8.014 25.664c0 8.827 7.158 15.986 15.986 15.986 0-8.828-7.158-15.986-15.986-15.986z"/></symbol><symbol id="icon-feature-2" viewBox="0 0 34.373 34.373"><path d="M.286 14.069a17.244 17.244 0 0 0 .008 6.301l4.121-3.21-4.129-3.091zM24.403 1.585C19.62-.623 13.959-.559 9.149 1.992l7.513 5.625 7.741-6.032zM33.901 13.175l-4.811 3.748 4.936 3.695a17.248 17.248 0 0 0-.125-7.443zM9.209 32.414c4.844 2.534 10.724 2.65 15.73.113l-8.096-6.062-7.634 5.949zM7.914 14.433L1.681 9.767c-.32.669-.595 1.356-.825 2.056l5.308 3.974 1.75-1.364zM18.593 25.102l8.336 6.242a17.184 17.184 0 0 0 1.74-1.372l-8.326-6.234-1.75 1.364zM11.413 11.707L4.002 6.158a17.073 17.073 0 0 0-1.269 1.723l6.931 5.189 1.749-1.363zM22.093 22.375l8.092 6.059c.471-.544.904-1.112 1.297-1.701l-7.639-5.721-1.75 1.363zM14.913 8.98L7.196 3.203a17.436 17.436 0 0 0-1.709 1.394l7.676 5.747 1.75-1.364zM25.592 19.649l6.972 5.221c.33-.662.615-1.341.855-2.033l-6.077-4.55-1.75 1.362zM26.448 2.706L.88 22.626c.233.698.513 1.386.839 2.059l26.52-20.663a17.006 17.006 0 0 0-1.791-1.316zM30.743 6.624a17.418 17.418 0 0 0-.939-1.106L2.786 26.567a17.144 17.144 0 0 0 1.279 1.717l27.09-21.108c-.134-.186-.269-.37-.412-.552zM32.298 8.999L5.552 29.838c.544.501 1.114.962 1.708 1.382l25.962-20.228a17.158 17.158 0 0 0-.924-1.993z"/></symbol><symbol id="icon-feature-3" viewBox="46.212 56.834 46.575 27.332"><path d="M88.882 56.834H50.116a3.905 3.905 0 0 0-3.904 3.905V80.26a3.905 3.905 0 0 0 3.904 3.905h38.766a3.906 3.906 0 0 0 3.905-3.905V60.739a3.906 3.906 0 0 0-3.905-3.905zm-39.647 24.95V59.551h40.202v22.233H49.235z"/><path d="M53.14 77.88h32.395V63.456H53.14V77.88zM69.5 65.354a5.315 5.315 0 1 1 0 10.63 5.315 5.315 0 0 1 0-10.63z"/></symbol><symbol id="icon-feature-4" viewBox="612.532 500.386 54.156 23.183"><path d="M652.844 506.098c-3.647-.971-7.839-1.667-12.359-1.666a46.394 46.394 0 0 0-7.71.623l-6.784-4.668-13.456.005 5.811 6.184h8.447c-4.58 1.598-6.759 3.515-6.759 3.515l.002 3.777s2.313 1.912 6.931 3.518l-8.623-.005-5.811 6.188 13.455.002 6.816-4.692c2.261.398 4.822.647 7.681.648 4.522-.001 8.712-.697 12.36-1.667-1.176-1.775-1.915-3.743-1.918-5.877.003-2.141.738-4.112 1.917-5.885zM656.267 507.132c-1.284 1.605-1.969 3.25-1.965 4.84-.007 1.597.677 3.238 1.968 4.847 6.399-2.162 10.419-4.841 10.419-4.841s-4.019-2.68-10.422-4.846z"/></symbol><symbol id="icon-feature-5" viewBox="47.475 50.071 33.05 27.857"><path d="M80.525 58.808a8.736 8.736 0 0 0-8.736-8.736A8.727 8.727 0 0 0 64 54.865a8.727 8.727 0 0 0-7.789-4.793 8.736 8.736 0 0 0-8.736 8.736c0 9.127 14.657 19.121 16.525 19.121 1.869 0 16.525-9.95 16.525-19.121z"/></symbol><symbol id="icon-feature-6" viewBox="239.665 239.757 32.666 32.486"><path d="M242.56 272.243h12.504v-13.91H242.56v13.91zm28.182-23.62h-7.335c.521-.267.984-.549 1.396-.845 1.588-1.133 2.424-2.57 2.42-3.999.002-1.169-.556-2.202-1.359-2.901a4.585 4.585 0 0 0-3.016-1.121c-1.22-.001-2.352.421-3.32 1.069-1.459.979-2.606 2.451-3.424 4.067-.039.079-.078.157-.115.236a12.944 12.944 0 0 0-1.041-1.792c-.691-.985-1.523-1.86-2.497-2.511-.97-.646-2.103-1.069-3.322-1.069-1.213.004-2.323.514-3.155 1.295-.828.783-1.41 1.885-1.412 3.135-.002.73.211 1.494.649 2.188.552.872 1.424 1.628 2.633 2.248h-6.588c-.878 0-1.591.712-1.591 1.59v5.897h15.396v-7.488h1.873v7.488h15.396v-5.897a1.585 1.585 0 0 0-1.588-1.59m-22.362-2.339c-.622-.391-1-.785-1.22-1.135-.22-.354-.294-.662-.296-.963-.004-.504.248-1.042.691-1.461.437-.415 1.028-.667 1.562-.667h.013c.685 0 1.366.231 2.046.683 1.018.671 1.975 1.85 2.645 3.187.342.676.609 1.39.789 2.087-3.082-.321-5.078-1.002-6.23-1.731m10.537-1.627c.557-.797 1.21-1.466 1.887-1.916.68-.451 1.362-.683 2.047-.683h.006c.574 0 1.117.22 1.494.55.377.336.571.739.573 1.171-.004.512-.272 1.259-1.467 2.132-1.138.825-3.101 1.673-6.127 2.265a10.57 10.57 0 0 1 1.587-3.519m-1.98 27.586h12.506v-13.91h-12.506v13.91z"/></symbol><symbol id="icon-flag" viewBox="-11.34 -28.346 46.68 81.691"><path fill="#63D1BB" d="M-3.561-24.455v38.9l38.9-19.451-38.9-19.449zm-7.779 77.801v-81.691h3.805v81.691h-3.805z"/><g><path fill="#231F20" d="M-11.34-28.346h3.805v81.691h-3.805z"/></g></symbol><symbol id="icon-insta" viewBox="53.115 53.19 21.769 21.334"><path d="M74.881 65.336c-.013-2.395-.344-4.788-.303-7.135a37.854 37.854 0 0 0-.152-2.278c-.105-.3-.111-.699-.152-1.062-.26-.17-.222-.64-.456-.835-.423-.233-1.201-.114-1.744-.22-.657-.026-1.254-.115-1.899-.153-1.936-.101-3.973-.076-5.996-.076-2.001 0-3.954-.145-5.695-.379h-2.202c-.097.004-.105.098-.227.076-.599.034-1.077.188-1.595.303-.21.119-.421.235-.683.304-.136.192-.513.145-.607.379-.186.212.185.451 0 .607v.911c.173.13.027.58.075.835v.987c-.017 1.281.134 2.397.076 3.72.467 2.762.374 6.537.076 9.413.155.579.363 1.105.455 1.746.256.479.335 1.133.683 1.52.502.206 1.233.186 1.898.229.383.098.667.293 1.14.3 2.843-.21 5.496-.154 8.427-.229 2.704.24 5.802.188 8.275-.228.195-.134.128-.529.228-.76-.056-.385.207-.449.228-.759.131-2.395.164-4.789.15-7.216zm-12.982-6.225c.757-.153 1.48-.341 2.429-.304.71.076 1.287.283 1.897.456.116.184-.243.547.153.684v.076c.059.017.149.002.151.076.445.035.794.167 1.063.379.45.055.536.476 1.138.3-.091.213-.084.524-.075.835.324 1.183.475 2.81.303 4.252-.164.163-.215.442-.303.683-.311.322-.481.785-.836 1.062-.095.236-.25.408-.454.533-.116.213-.206.452-.457.53-.298.163-.577.011-.834-.076-.446.162-.904.312-1.215.607-.816-.096-1.648-.175-2.43-.304-.242-.139-.487-.273-.835-.305a1.997 1.997 0 0 0-.836-.455c-.101-.127-.337-.118-.455-.229-.198-.029-.229-.227-.456-.229-.118-.412-.443-.618-.532-1.062-.226-.331-.308-.805-.455-1.215-.043-1.434.091-2.692.379-3.796.346-.591.779-1.094 1.138-1.67.249.021.365-.09.38-.304.306.053.434-.072.684-.075.257.008.269-.309.458-.449zm-1.67-2.733c-.117-.263-.066-.691-.075-1.062-.007-.285.278-.279.304-.532-.003-.074-.093-.059-.152-.076.126-.146.701-.097.834 0 .132.537-.354.455-.531.684.011.167.322.032.456.076.029.854-.059 1.496 0 2.202h-.456c-.007.234.229.226.456.228-.059.286.092.363.075.607-.226.153-.716.042-1.062.075-.103-.594.235-1.375.151-2.202zm-.683-1.594c.088-.013.134.016.151.076.179.253.01.683-.076.911-.173-.179-.026-.682-.075-.987zm.152 1.822c-.132-.069-.168-.237-.152-.456.132.071.167.238.152.456zm0 1.367c-.058.139-.082-.045-.076-.152.058-.139.081.045.076.152zm-.152.228c.175-.024.084.219.228.227-.009.193-.283.179-.38.077.039-.112.113-.193.152-.304zm-2.354-1.216c.006-.108.013-.214-.076-.228-.073-.733.13-1.415 0-1.973.25-.155.769-.042 1.139-.077v1.139c-.088.064-.203.101-.379.077-.054.28.324.131.379.304.008.853-.056 1.777.152 2.429-.565-.059-.906.107-1.442.076.097-.612-.019-1.435.531-1.594-.012-.141-.257-.047-.304-.153zm-.531 0c-.204.021-.217-.534-.077-.607.328.006.249.501.077.607zm-.152.988c.077-.312.034-.304.075-.683.228.013.26.77-.075.683zm.228-2.05c-.263.054-.273-.266-.153-.38.263-.053.272.267.153.38zm0-1.139c.033.159-.052.201-.076.304-.176.023-.084-.219-.229-.229.025-.102.191-.062.305-.075zm-.228 3.721c.148-.031.11.345-.076.227a.363.363 0 0 0 .076-.227zm-.684-3.721c.029.259-.438.32-.379 0h.379zm-.987.076c-.034.219-.326.179-.379.379-.214-.17.084-.468.379-.379zm-.455.759c.226-.205.451-.41.684-.607-.021-.123.071-.131.076-.228h.229c.102.381-.261.296-.305.531.021.122-.072.131-.075.227.02.335.121.588.075.988-.27.008-.276.28-.607.227.022-.428-.135-.674-.077-1.138zm.076 3.265V57.29c.195-.185.396-.364.607-.532.295.489.179 1.392.455 1.897-.275.157-.75.111-1.062.229zM72.68 69.968c-.109.954-.158 1.968-.379 2.809-2.89.123-6.02.005-8.883.153-.199.045-.273-.031-.229-.229-.253 0-.258.247-.531.229.201-.336.438-.898.151-1.291-.797.013-.797.821-1.138 1.291-.686-.053-1.137.127-1.823.075.18-.705.75-1.021.911-1.745-.395-.55-.989.138-1.214.455-.204.48-.557.81-.76 1.29H57.8c.238-.469.489-.926.759-1.366.171-.512.625-.741.683-1.367-.157-.28-.42-.029-.683 0-.123.182-.272.335-.38.531-.232.376-.501.714-.684 1.14-.181.208-.335.003-.53.227-.389.271-.581.736-.988.987-.174-.06.039-.356.153-.38.045-.181-.096-.55.075-.607.063-.366.212-.647.379-.91.119-.742.521-1.199.684-1.898-.559.099-.674.643-.988.987-.212.445-.542.772-.683 1.291-.174-.131-.028-.58-.076-.836.122-.586.298-1.119.38-1.746.133-.22.173-.535.228-.834.168-.209.046-.61-.077-.761-.226.027-.374.133-.455.304-.192-.032-.193.506-.304.304-.045-2.587-.451-4.812-.456-7.438.026-.331-.183-.424-.228-.685 1.629.028 3.121.091 4.783.229-.089.139-.199.257-.304.379-.144.07-.226.173-.378.304-.604 1.653-.975 3.984-.607 6.15.229.58.589 1.029.986 1.441.907.485 1.635 1.149 2.506 1.671 1.701.361 3.84.369 5.541 0 .236-.12.484-.226.685-.38 1.364-1.242 2.753-2.459 2.961-4.859v-1.367c-.197-1.598-.688-2.905-1.747-3.644.331-.22 1.099.043 1.67.076.223.013.447.014.684 0 .408-.024.928-.055 1.443 0 .144.187.113.544.228.76-.062 1.684-.192 3.3-.152 5.087.103.454.127.986.229 1.441-.091.973-.237 1.89-.457 2.732zm.379-11.16c-.639-.12-1.232-.284-1.897-.379.072-.333.799-.01.987-.228.385-.223.295-.92.304-1.51.032-.348.114-.644.076-1.063-.401-.951-1.783-.421-2.886-.455-.225.718-.47 1.8-.304 2.657.169.49 1.024.292 1.519.456-.14.332-.688.057-.987.076-.296-.083-.707-.052-.986-.151-2.285.078-4.284.004-6.529.151.117-1.248.063-2.465-.076-3.645h3.112c-.344.364-.912.507-1.29.835-.44.244-.861.505-1.139.911.249.134.535-.245.759-.379.355-.074.479-.381.835-.455.423-.438 1.096-.625 1.67-.912.378-.022.697.013.987.077 1.283.007 2.456.126 3.796.076.614.145 1.45.069 1.974.304.107.298.231.579.305.911.008.986-.149 1.816-.23 2.723zm-5.845-3.72c.11-.047-.009-.092 0 0zm0 0c-.529.154-1.019.348-1.367.682.484-.198 1.059-.306 1.367-.682zm1.062.607c.111-.047-.007-.091 0 0zm-1.746.911c.727-.158 1.181-.591 1.746-.911-.437.019-.592.32-.987.379-.215.217-.6.26-.759.532zm-.683-.835c-.111.047.007.092 0 0zm-.683.607c.11-.046-.008-.092 0 0zm-.075.076c.063.014.07-.03.075-.076-.064-.014-.072.03-.075.076zm-.077.076c.064.014.072-.03.077-.076-.067-.013-.072.029-.077.076zm-.834.608c.346-.134.613-.348.834-.607a2.018 2.018 0 0 0-.834.607zm2.276.987c.533-.049.749-.416 1.215-.531.284-.298.784-.381.987-.76-.56.023-.766.399-1.216.531-.284.297-.751.413-.986.76zm-2.276-.987c-.317-.074-.016.227 0 0zm-.533.379c.021.021.115-.037.076-.077-.021-.02-.116.038-.076.077zm2.809.608c-.11.047.007.091 0 0zm-1.14 1.821c-.223-.231-.676-.233-.986-.379-.697-.038-1.223.093-1.746.229-.304.151-.607.304-.91.454-.266.166-.444.417-.76.532-.205.225-.352.51-.684.607-.004.223-.173.281-.304.379-.089.115-.094.312-.227.381-.007.12.036.29-.076.303.108 1.512.291 2.948.683 4.177.287.623.975.846 1.442 1.29.589.297 1.328.444 2.126.531.277-.052.553-.105.911-.076a5.088 5.088 0 0 0 2.81-1.441c.1-.281.252-.508.455-.684-.254-.671.293-1.098.455-1.59.002-1.344-.201-2.48-.607-3.415-.256-.579-.92-.751-1.366-1.139-.059-.018-.15-.003-.151-.077-.269-.136-.733-.239-1.065-.082zm-3.415 4.327c-.113-.063-.109-.244-.152-.379.256-.078.118.237.152.379zm.076.305c.041-.117.079-.006.076.075-.04.118-.079.005-.076-.075zm.456-2.051c.015-.086.075-.042.075 0-.014.087-.075.043-.075 0zm1.67-2.125c-.203.258.041.576.077.836-.305-.039-.574-.887-.077-.836zm.379 3.948c-.04-.038.055-.097.076-.076.04.038-.054.097-.076.076zm.759 2.884c.034-.109.066.008.152 0-.018.097-.15.077-.152 0zm2.201-2.581c-.233-.057-.145.208-.379.152.069-.159.118-.338.229-.455.134.019.172.13.15.303zm-1.137-3.796c.211.119.441.217.606.381.085.219.243.363.38.529.058.778.179 1.492.151 2.354-.257.099-.438.271-.683.381-.78-.006-1.358-.212-1.897-.456-.171-.259-.355-.505-.532-.759v-1.062c.17-.185.319-.391.456-.607.228-.127.508-.201.454-.607-.038-.062-.078-.124-.075-.229.158.045.245.159.379.229.323.017.41-.2.761-.154z"/></symbol><symbol id="icon-interior" viewBox="-259.404 -19.675 40.219 62.411"><path d="M-244.227 18.283c-.286.966-.245 2.191.027 3.639.494 2.635 1.687 6.041 2.358 9.67h5.062c.696-3.641 1.949-7.05 2.471-9.683.287-1.445.33-2.66.041-3.617-.275-.899-.89-1.618-2.021-2.303h-5.997c-1.075.679-1.674 1.391-1.941 2.294zM-232.395 38.278h-13.799c-1.293 0-2.299.976-2.299 2.229v2.229h18.397v-2.229c0-1.253-1.006-2.229-2.299-2.229zM-225.262-17.446h-11.732c0-1.244-1.015-2.229-2.3-2.229-1.283 0-2.3.985-2.3 2.229h-11.737l-6.073 25.517c.794-.461 1.589-.992 2.632-.992 1.359 0 2.243.818 2.924 1.375.682.557 1.162.849 1.447.849.292.001.769-.287 1.451-.836.681-.548 1.564-1.358 2.915-1.358 1.349 0 2.237.806 2.919 1.354.684.549 1.161.84 1.451.84.146 0 .338-.073.58-.214.242-.141.53-.353.872-.626.512-.411 1.139-.967 1.99-1.218.284-.085.593-.136.93-.136 1.347 0 2.238.805 2.92 1.354.683.548 1.159.84 1.451.84.287-.002.766-.296 1.445-.85.684-.554 1.571-1.367 2.925-1.367 1.356 0 2.239.817 2.919 1.371.342.276.631.489.872.631.24.143.431.214.575.214.288 0 .762-.293 1.442-.854.68-.559 1.567-1.384 2.929-1.384 1.044 0 1.839.533 2.632.997l-6.079-25.507zM-235.881 33.82h-6.864c-.657 0-1.15.479-1.15 1.115 0 .635.493 1.113 1.15 1.113h6.9c.655 0 1.15-.479 1.15-1.113 0-.636-.495-1.115-1.15-1.115h-.036zM-239.295 9.336c-.146 0-.338.074-.58.213-.157.094-.37.261-.57.41v3.731h2.299V9.959c-.505-.378-.908-.623-1.149-.623z"/></symbol><symbol id="icon-left-arrow" viewBox="0 0 50 26.003"><path d="M50 11.002H7.659l8.174-8.174L13.005 0 0 12.998l.003.003-.003.004 13.005 12.998 2.828-2.828-8.172-8.173H50z"/></symbol><symbol id="icon-mail" viewBox="0 0 32 32"><path fill="#333" d="M28 5H4a4 4 0 0 0-4 4v13a4 4 0 0 0 4 4h24a4 4 0 0 0 4-4V9a4 4 0 0 0-4-4zM2 10.25l6.999 5.25L2 20.75v-10.5zM30 22c0 1.104-.898 2-2 2H4c-1.103 0-2-.896-2-2l7.832-5.875 4.368 3.277a3 3 0 0 0 3.599 0l4.369-3.277L30 22zm0-1.25l-7-5.25 7-5.25v10.5zm-12.801-2.148c-.35.263-.763.4-1.199.4s-.851-.139-1.2-.4L10.665 15.5l-.833-.625L2 9.001V9c0-1.103.897-2 2-2h24c1.102 0 2 .897 2 2l-12.801 9.602z"/></symbol><symbol id="icon-map-pin" viewBox="0 0 66 100.801"><path fill="#FFF" d="M56.334 9.228c-12.892-12.305-33.773-12.305-46.667 0-12.891 12.297-12.891 32.248 0 44.542 0 0 23.318 21.832 23.318 47.031 0-25.199 23.343-47.031 23.343-47.031 12.897-12.294 12.897-32.245.006-44.542z"/><path fill="#6BC6B3" d="M47.036 45.522c-.636-3.277.13-6.947.027-10.284-.115-3.755-.713-7.485-.665-11.246.039-3.044.545-6.173-.503-9.091.065-.332.134-.662.195-.995.271-1.463-4.577-.689-5.338.649-.479.393-.726.861-.523 1.339.051.121.097.243.142.365-.917 4.485-2.197 8.827-3.668 13.174-.563 1.663-1.244 3.288-1.817 4.946-.814-1.545-1.638-3.071-2.3-4.728-1.922-4.805-3.656-9.661-6-14.285.266-2.14-4.484-1.916-5.421.044-1.132 2.371-.986 4.763-.613 7.299.42 2.858.494 5.668.528 8.554.066 5.566.502 11.119.584 16.684-.496.552-.646 1.233-.127 1.924.226.302.505.535.799.769 1.265 1.013 4.899.15 4.893-1.779-.02-5.771-.437-11.531-.589-17.299-.015-.565-.025-1.129-.034-1.694.08.203.159.406.24.607.896 2.245 1.833 4.427 3.059 6.514 1.214 2.068 1.824 4.289 2.523 6.547-.265.303-.423.647-.326.991-.055.251.099.409.352.504.894.766 2.578.383 3.513-.01a8.28 8.28 0 0 0 1.155-.593c.483-.297 1.236-.95 1.021-1.622a44.64 44.64 0 0 1-.121-.391c.657-1.776.992-3.625 1.352-5.5.381-2 1.095-3.892 1.812-5.786.073.867.149 1.732.219 2.597.285 3.575.046 7.099.011 10.674a16.22 16.22 0 0 0 .306 3.445c.096.479.514 2.53.394 2.642-.855.79-.606 1.759.539 2.011 1.279.281 2.912-.148 3.877-1.039 1.675-1.548.882-3.98.504-5.937z"/></symbol><symbol id="icon-menu-close" viewBox="0 0 20.514 20.512"><path fill="#231F20" d="M20.513 1.414L19.099 0l-8.843 8.842L1.414 0 0 1.414l8.842 8.842L0 19.098l1.414 1.414 8.842-8.842 8.843 8.842 1.414-1.414-8.842-8.842z"/></symbol><symbol id="icon-menu-open" viewBox="0 0 19.958 14"><path fill="#231F20" d="M0 0h19.958v2H0zM0 6h19.958v2H0zM0 12h19.958v2H0z"/></symbol><symbol id="icon-phone" viewBox="0 0 24.829 24.333"><path d="M17.321 24.333h-1.115c-4.904-.58-8.497-2.857-11.11-5.772C2.473 15.637.402 11.875 0 6.817V5.459c.091-.921.544-1.55 1.067-2.086.65-.666 1.63-1.522 2.522-1.553.659-.022 1.78.451 2.232 1.066.388.53.595 1.59.775 2.378.185.797.6 1.95.485 2.717-.176 1.196-1.764 1.703-2.231 2.572 1.551 3.721 4.089 6.456 7.472 8.345.847-.465 1.595-1.864 2.767-1.892.428-.012.972.209 1.406.34.477.143.891.326 1.311.484.705.266 1.957.621 2.378 1.213.433.61.681 1.608.581 2.231-.194 1.234-2.227 2.603-3.444 3.059zM12.529 1.528c5.949 0 10.771 4.822 10.771 10.771h1.529C24.829 5.507 19.323 0 12.529 0v1.528z"/><path d="M12.529 9.327v1.552a1.42 1.42 0 0 1 1.421 1.42h1.553a2.973 2.973 0 0 0-2.974-2.972zM12.529 6.246a6.054 6.054 0 0 1 6.056 6.054h1.588a7.642 7.642 0 0 0-7.644-7.641v1.587z"/></symbol><symbol id="icon-play" viewBox="247.3 382.56 100.678 76.891"><path fill="#63D1BB" d="M344.255 400.708s-.92-7.008-3.785-10.078c-3.632-4.041-7.674-4.066-9.541-4.297-13.326-1.023-33.303-1.023-33.303-1.023h-.051s-19.978 0-33.304 1.023c-1.867.23-5.908.256-9.54 4.297-2.84 3.096-3.786 10.078-3.786 10.078s-.896 8.211-.896 16.422v7.699c0 8.21.947 16.421.947 16.421s.921 7.009 3.785 10.078c3.632 4.041 8.364 3.913 10.487 4.349 7.622.767 32.356 1.022 32.356 1.022s20.003-.025 33.329-1.048c1.867-.23 5.908-.256 9.54-4.298 2.84-3.069 3.786-10.078 3.786-10.078s.946-8.21.946-16.421v-7.699c-.023-8.236-.97-16.447-.97-16.447z"/><path fill="#FFF" d="M297.614 459.449h-.016c-1.015-.011-24.946-.266-32.604-1.037l-.14-.014-.137-.028c-.271-.056-.668-.107-1.126-.167-2.503-.328-7.159-.938-10.839-5.019-3.354-3.616-4.377-10.771-4.483-11.576l-.005-.043c-.039-.342-.965-8.463-.965-16.736v-7.699c0-8.266.875-16.378.912-16.72l.009-.071c.108-.802 1.155-7.928 4.474-11.557 3.996-4.439 8.531-4.899 10.712-5.121.192-.02.37-.037.529-.058l.126-.013c13.277-1.019 33.312-1.031 33.514-1.031h.051c.201 0 20.236.013 33.514 1.031l.126.013c.159.021.337.038.529.058 2.179.221 6.71.682 10.704 5.112 3.354 3.616 4.377 10.771 4.483 11.577l.005.043c.039.342.965 8.459.99 16.753v7.708c0 8.273-.926 16.395-.965 16.736l-.007.053c-.108.805-1.156 7.953-4.478 11.562-3.994 4.435-8.527 4.896-10.707 5.117-.193.02-.371.037-.53.057l-.126.013c-13.276 1.02-33.334 1.057-33.535 1.058l-.015-.001zm-31.944-6.497c7.477.729 31.216.989 31.968.997.657-.001 20.135-.049 33.047-1.036.178-.021.371-.041.58-.062 1.836-.186 4.608-.468 7.186-3.335l.026-.029c1.825-1.974 2.853-6.928 3.075-8.552.059-.514.926-8.358.926-16.08v-7.699c-.023-7.76-.896-15.627-.951-16.109-.32-2.382-1.434-6.789-3.066-8.539l-.035-.038c-2.577-2.868-5.351-3.149-7.186-3.336a34.367 34.367 0 0 1-.58-.062c-13.066-.998-32.834-1.011-33.033-1.011h-.051c-.198 0-19.967.013-33.033 1.011a33.29 33.29 0 0 1-.58.062c-1.835.187-4.607.468-7.186 3.336l-.019.021c-1.828 1.993-2.855 6.924-3.082 8.552-.062.591-.875 8.399-.875 16.089v7.699c0 7.749.871 15.598.926 16.083.32 2.381 1.433 6.789 3.066 8.539l.035.039c2.322 2.584 5.303 2.975 7.479 3.259.481.061.939.121 1.363.201z"/><g><path fill="#FFF" d="M285.733 403.138v35.708l29.747-17.854z"/></g></symbol><symbol id="icon-right-arrow" viewBox="0 0 50 26.003"><path d="M0 11.002h42.341l-8.175-8.174L36.995 0 50 12.998l-.004.003.004.004-13.005 12.998-2.829-2.828 8.173-8.173H0z"/></symbol><symbol id="icon-search" viewBox="-0.8 -0.8 17.6 17.6"><path d="M16.47 14.93l-3.415-3.415A7.67 7.67 0 0 0 14.6 6.899C14.6 2.646 11.153-.8 6.9-.8S-.8 2.646-.8 6.899s3.446 7.7 7.699 7.7c1.734 0 3.326-.58 4.613-1.546l3.417 3.416c.203.202.418.33.771.33a1.1 1.1 0 0 0 1.1-1.1c0-.24-.061-.499-.33-.769zM1.399 6.899a5.5 5.5 0 1 1 11 0c0 3.038-2.462 5.5-5.5 5.5s-5.5-2.461-5.5-5.5z"/></symbol><symbol id="icon-tick" viewBox="0 0 32.666 22.742"><path d="M32.666 1.414L31.252 0 11.338 19.914 1.414 9.989 0 11.403l9.924 9.925 1.414 1.414h.001l1.414-1.414h-.001z"/></symbol><symbol id="icon-toy" viewBox="226.001 226.19 60 59.62"><path d="M226.001 269.871l27.438 15.934v-23.346l-27.438-15.94v23.352zm51.346-31.244v2.453c0 1.817-3.458 3.29-7.73 3.29-4.266 0-7.727-1.473-7.727-3.29v-4.059h.024c.26 1.714 3.604 3.073 7.702 3.073 4.272 0 7.729-1.474 7.729-3.285 0-1.819-3.457-3.289-7.729-3.289-.339 0-.675.01-1.002.03l-4.975-2.888v3.086c0 1.817-3.454 3.29-7.723 3.29-2.683 0-5.045-.583-6.433-1.467a3.928 3.928 0 0 0-.732-.586c-.363-.381-.565-.797-.565-1.236v-2.986l-4.807 2.792a21.384 21.384 0 0 0-1.054-.033c-4.267 0-7.727 1.469-7.727 3.289 0 1.811 3.46 3.285 7.727 3.285 4.099 0 7.446-1.358 7.705-3.073h.022v4.059c0 1.817-3.455 3.29-7.727 3.29-4.267 0-7.727-1.473-7.727-3.29v-2.42l-5.952 3.452 27.531 15.986 27.351-15.882-6.181-3.591zm-13.644 10.166c0 1.817-3.46 3.287-7.727 3.287-4.269 0-7.729-1.47-7.729-3.287v-4.059h.024c.26 1.715 3.603 3.076 7.705 3.076 4.101 0 7.443-1.361 7.705-3.076h.021v4.059h.001zm-5.145 13.873v23.144L286 269.871v-23.144l-27.442 15.939zm-2.641-29.904c4.269 0 7.723-1.47 7.723-3.286 0-1.814-3.454-3.287-7.723-3.287-4.27 0-7.729 1.472-7.729 3.287-.001 1.816 3.459 3.286 7.729 3.286"/></symbol><symbol id="icon-twitter" viewBox="52.253 53.771 23.494 20.168"><path d="M75.706 57.855c-.227-.366-.909-.277-1.407-.371h-1.112c.142-.353.343-.646.52-.963.056-.438.254-.734.223-1.26.129-.167.176-.417.296-.593.104-.144.242-.477.074-.667-.051-.221-.295-.249-.593-.222a.515.515 0 0 0-.222.148c-.448.433-.778 1.014-1.261 1.408-.009.008-.062 0-.074 0-.087.005-.033.046-.075.074-.146.098-.257.152-.369.223-.284.176-.547.445-.891.519-.529-.211-1.156-.326-1.852-.37-1.157.102-2.303.215-3.038.741-.911.35-1.477 1.042-2.149 1.63-.049.32-.342.398-.37.741-.005.045-.012.088-.073.074.043.241-.051.345-.074.519-.001.133.199.431 0 .52-.822-.12-1.485-.63-2.149-.964-.718-.36-1.468-.604-2.074-1.111-.716-.322-1.26-.816-1.778-1.334-.208-.312-.542-.496-.667-.89-.379-.164-.175-.912-.741-.889-.315-.043-.345.199-.444.37-.07.227-.361.232-.371.519-.004.046-.011.088-.074.075-.17 1.089-.527 1.992-.519 3.26.129.415.35.738.593 1.038-.418.051-.716.222-.89.519-.06 1.073.378 1.647.742 2.297.134.384.352.685.593.963.017.229.206.288.296.445.019.105.123.125.149.223-.04.105.289.18.073.221-.413.131-1.016.07-1.259.371-.109.279-.109.833 0 1.111.034.237.282.262.296.519.499.417 1.082.747 1.631 1.112.574.166 1.211.271 1.852.37-.102.343-.338.551-.593.741-.78.381-1.849.474-2.742.74-.555.038-.956.23-1.556.223-.333.127-.854.075-1.112.223-.122.068-.102.096-.222.221-.134.412.111.74.444.89-.005.253.219.276.371.371.089.183.254.29.445.37.544.468 1.268.759 1.927 1.112.83.183 1.648.376 2.52.519.896.116 1.901.124 2.816.222h.963c.511.132 1.23.054 1.853.074.095-.102.322-.073.519-.074.522-.269 1.196-.385 1.631-.74.574-.241.989-.642 1.557-.89.866-.765 1.937-1.324 2.519-2.37.205-.189.351-.438.445-.74.265-.156.385-.454.593-.667.404-.41.706-.924 1.037-1.4.319-.496.576-1.054.89-1.556-.01-.405.306-.484.296-.89.193-.226.177-.662.371-.88-.033-.255.029-.415.074-.594.047-1.281-.047-2.422-.297-3.407.588-.155 1.181-.302 1.631-.593.52-.206.993-.603.808-1.281zm-3.408 4.076c-.153.859-.615 1.41-1.038 2.001.059.379-.104.538-.073.889a4.303 4.303 0 0 0-.371 1.037c-.203.267-.332.606-.519.89-.366.548-.777 1.051-1.186 1.557-.378.56-.912.965-1.334 1.481-.42.493-.942.885-1.407 1.334-.474.17-.89.396-1.26.667a5.06 5.06 0 0 0-.667.296c-.177.146-.499.145-.668.29-1.086.147-2.3.17-3.555.148-1.031-.105-2.115-.159-3.039-.371-.922-.189-1.511-.712-2.297-1.037.153-.242.634-.154.963-.222.031-.166.394-.003.444-.149.257.06.285-.109.52-.07.563-.201 1.23-.302 1.705-.593.282-.138.406-.434.667-.593.033-.189.104-.341.222-.444.047-.275.201-.441.148-.815.111-.21.299-.343.296-.667-.074-.147-.128-.316-.296-.371-.026-.196-.377-.067-.444-.222-.255.032-.416-.029-.593-.075-.154-.043-.487.092-.519-.073-.842-.023-1.3-.43-1.853-.74.431-.262 1.032-.353 1.333-.742.516-.076 1.058-.129 1.112-.666 0-.717-.771-.661-1.333-.815-.773-.66-1.194-1.672-1.779-2.52.238-.157.564-.226.741-.444.454.058.54-.251.667-.52.019-.488-.333-.605-.593-.815a3.49 3.49 0 0 1-.667-.74c-.003-.818-.021-1.652.074-2.372.063-.014.07.029.074.074.227.441.559.775.815 1.186.532.357.925.853 1.556 1.112.452.413 1.108.621 1.557 1.038.601.263 1.158.57 1.704.889.669.194 1.056.673 2.001.593.198-.098.394-.199.593-.297.258-.456-.059-1.079.147-1.63.255-.659.797-1.031 1.26-1.481.29-.155.555-.335.815-.519.347-.098.675-.216.964-.37a6.223 6.223 0 0 0 1.037-.148h1.26c.244.052.475.119.74.148.209.137.38.313.666.371.789.693 1.271 1.696 1.409 3.039-.122.484.053.873.001 1.481zm.296-5.632c-.129.34-.23.707-.593.815-.017-.105-.122-.125-.147-.222-.012-.209.209-.186.296-.296.162-.085.245-.248.444-.297-.007-.09.108-.046 0 0zm-5.484 3.038c.163.135.284.31.519.371.101.221.314.327.594.37.047-.15.346-.049.37-.222.174-.023.166-.229.296-.297-.018-.55-.129-1.006-.37-1.333-.758-.423-1.676.039-1.409 1.111z"/></symbol><symbol id="icon-video" viewBox="0 0 32 32"><path d="M26 15l6-4v16l-6-4v-8zm-2 0v8a4 4 0 0 1-4 4H4a4 4 0 0 1-4-4v-8a4 4 0 0 1 4-4h10a2 2 0 0 1 2-2V7H5a1 1 0 1 1 0-2h12a1 1 0 0 1 1 1v3a2 2 0 0 1 2 2 4 4 0 0 1 4 4zm-12 0H4v8h8v-8zm8 1a1 1 0 0 0-1-1h-4a1 1 0 1 0 0 2h4a1 1 0 0 0 1-1z"/></symbol><symbol id="logo-desktop" viewBox="0 0 148.051 72.707"><path d="M143.165 31.397c-1.481 1.055-3.053 1.942-4.657 2.777.037-1.747-.119-3.465-.591-5.127.051-.333.102-.667.145-1.002.375-3.005.657-7.122-2.003-9.224-.335-.265-1.249-.035-1.922.274a4.64 4.64 0 0 0-.496-.415 14.922 14.922 0 0 1-.229-.735c-.035-.12-.168-.188-.36-.215.285-.383.263-.818-.419-1.092a18.59 18.59 0 0 0-1.143-.413c-.067-.072-.126-.096-.172-.058l-.006.003c-.938-.3-1.893-.533-2.859-.705.138-.331.396-.813.552-1 .132-.157.279-.3.429-.439.062-.057.125-.111.188-.165l.069-.061.084-.062c.38-.288.846-.865.221-1.202-.57-.307-1.507-.142-2.007.238-.863.655-1.626 1.379-2.092 2.361-2.01-.169-4.05-.155-6.079-.078a.757.757 0 0 0 .141-.25c.184-.585-.908-.525-1.188-.488-1.562.205-3.125.407-4.688.604 1.367-3.773 3.083-8.578 1.001-12.264-1.19-2.106-3.906-2.579-6.098-2.652-2.436-.081-4.898.461-7.036 1.636-4.762 2.618-7.11 7.71-8.21 13.138-.497-.657-2.301-.425-2.645.468-.124.32-.229.645-.327.972-.16.174-.282.386-.345.637-.015.056-.027.111-.041.167l-.196.007c.02-.104.041-.207.064-.31.146-.109.247-.232.28-.366.574-2.296 1.156-4.588 1.948-6.82.269-.756-2.511-.399-2.804.426a51.17 51.17 0 0 0-1.12 3.622c-.165.078-.356.187-.425.326-.017.034-.031.07-.047.104-.107-.093-.271-.151-.466-.178v-.959c0-.432-2.823-.034-2.823.757v1.568a2.329 2.329 0 0 0-.472.266l-.19.172a.373.373 0 0 0-.12.245c-.007.026-.013.053-.023.078-.017.022-.032.046-.052.066-.126.128-.184.335-.027.467.19.16.508.167.738.159.048-.002.097-.007.146-.011v.468a75.61 75.61 0 0 1-.675-.006l-.411-.051c-.021-.385-.676-.452-1.351-.328a.524.524 0 0 0-.001-.148 23.602 23.602 0 0 1-.229-1.79c.237-.079.471-.18.68-.313.159-.102.328-.224.328-.43v-.194c0-.18-.412-.204-.499-.208a2.849 2.849 0 0 0-.589.041c-.075-1.305-.081-2.615-.081-3.925 0-.84-2.824-.315-2.823.757 0 1.786.009 3.57.193 5.343a2.477 2.477 0 0 0-.27.009v-1.532c0-1.045-1.297-1.22-2.147-.809.313-.262.489-.622.37-1.039-.403-1.414-.778-2.827-.974-4.287-.188-1.394-3.017-.677-2.824.756.196 1.46.57 2.873.975 4.287.235.828 1.338.889 2.104.51-.227.196-.373.452-.373.76v.63c-.189-.098-.439-.16-.77-.16-1.057 0-1.671.885-1.4 1.477a41.915 41.915 0 0 1-.491-.083c-.382-1.248-.686-2.514-.714-3.83-.02-.942-1.27-1.049-2.108-.672a.571.571 0 0 0-.049-.168c-.385-.804-.567-1.674-.78-2.533-.332-1.35-3.158-.601-2.823.756.157.638.3 1.281.519 1.898l-.056.014c-.3.081-.601.205-.854.387-.832.079-1.828.565-1.752 1.208.058.478.131.953.209 1.427-.546.091-1.092.177-1.639.26a11.905 11.905 0 0 1-.618-2.443c-.131-.924-1.555-.854-2.332-.26-.774-2.062-1.796-4.019-3.122-5.761-2.621-3.439-7.097-4.613-11.242-3.794-1.9.376-3.735 1.184-5.043 2.646-1.21 1.353-1.352 3.089-1.17 4.805.158 1.493.61 4.005 1.584 5.976-.35-.012-.709.041-.949.139-.283.117-.561.248-.833.388a95.043 95.043 0 0 1-5.803-.07c-4.179-.194-8.301-.86-12.497-.742-.923.026-1.534.719-1.465 1.262-1.046.502-1.733 1.315-2.143 2.287-1.732-1.15-3.479-2.266-5.335-3.211-.689-.351-3.3.707-2.285 1.224 1.84.938 3.561 2.072 5.278 3.216.512.341 1.32.133 1.842-.07.03-.012.09-.039.165-.077-.306 1.44-.157 3.067.241 4.493.03.11.093.198.172.27a9.289 9.289 0 0 0-.007 1.015l-.002.165c-.4.189-.712.48-.76.839a37.38 37.38 0 0 0-.305 4.229c-.272.199-.462.469-.485.798-.233 3.345.037 6.652.467 9.95.185 2.694.69 5.344 1.172 7.999.058.416.113.832.167 1.249-.265 1.133-.398 2.395-.237 3.482-.881.171-1.729.866-1.233 1.617.765 1.158 1.644 2.018 2.606 2.649-.633-.103-1.42.11-1.871.555-.818.809-1.715 1.531-2.533 2.339-.429.424-.314.935.289 1.078.651.155 1.516-.06 1.997-.535.817-.808 1.715-1.531 2.533-2.339.248-.245.308-.517.204-.731 3.21 1.735 7.235 1.27 11.114.943-.882 1.589-1.542 3.273-2.17 4.997-.262.719 2.507.373 2.801-.436.61-1.675 1.237-3.343 2.103-4.895 3.741.117 7.479.122 11.215.051.149.182.416.305.746.336 3.27.311 6.489-.096 9.688-.699 4.789-.229 9.577-.525 14.366-.809 7.527-.186 15.056-.346 22.587-.32.1.109.204.215.314.318.272.256.621.345.979.33.062.009.128.016.199.019a69.72 69.72 0 0 1 2.141.145c.156.04.341.059.559.046h.005c.782.067 1.563.14 2.346.208.171.214.497.342.792.361 3.804.25 7.612.522 11.423.703.14.229.536.34.82.343 7.067.06 15.278 2.804 21.558-1.736.501-.362.273-.877-.264-.984a1.992 1.992 0 0 0-.326-.034c.008-.016.018-.03.023-.045a60.72 60.72 0 0 0 2.945-8.552c.365-.198.632-.494.646-.86.049-1.189.188-2.406.371-3.639a63.27 63.27 0 0 0 .441-2.66c.387-2.169.806-4.367 1.018-6.541 2.28-1.147 4.538-2.335 6.622-3.819 1.565-1.117-.784-1.883-1.832-1.137zm-55.33-15.046a1.13 1.13 0 0 0-.134.123c.073-.312.149-.623.228-.934h.111c-.068.27-.138.541-.205.811z"/><path d="M63.261 12.626c.127.196.562.217.753.217.377.001.759-.083 1.106-.225.404-.166 1.101-.559.77-1.07-.363-.562-.609-1.19-.975-1.754-.127-.196-.562-.217-.754-.217a2.914 2.914 0 0 0-1.105.226c-.404.165-1.101.558-.77 1.069.363.562.61 1.191.975 1.754zM20.683 10.907c.216.647 1.111.647 1.648.504.472-.127 1.39-.616 1.175-1.26-.208-.624-.433-1.293-.893-1.78-.479-.507-1.324-.417-1.902-.151-.412.19-1.177.838-.695 1.349.382.405.478.772.667 1.338zM30.66 13.895c.843 0 3.073-1.276 1.186-1.276-.843 0-3.074 1.276-1.186 1.276zM122.562 12.274c.346.072.717.032 1.055-.059.321-.086.7-.234.941-.477.355-.355.728-.729.962-1.178.104-.198.174-.399-.005-.587-.188-.197-.507-.245-.763-.251a2.695 2.695 0 0 0-1.106.22c-.252.106-.621.294-.756.553a2.964 2.964 0 0 1-.351.513l-.023.027a.578.578 0 0 0-.028.032c-.064.067-.13.133-.195.199-.158.158-.346.365-.279.614.063.241.333.349.548.394zM135.861 17.692c.631-.061 1.395-.246 1.894-.662 1.319-1.102 2.603-2.248 3.623-3.642.288-.393-1.049-.243-1.118-.23-.534.099-1.316.276-1.661.746-.949 1.296-2.164 2.349-3.391 3.374-.498.415.441.434.653.414zM146.74 44.769h-4.872c-.616 0-1.475.468-1.556 1.139-.09.739.754.922 1.304.922h4.871c.617 0 1.475-.468 1.557-1.139.09-.739-.754-.922-1.304-.922zM57.021 60.784c-.498.08-1.412.296-1.639.831a34.65 34.65 0 0 0-1.364 3.897c-.211.733 2.571.333 2.798-.451a34.575 34.575 0 0 1 1.363-3.897c.222-.527-.966-.412-1.158-.38zM61.602 63.375a3.893 3.893 0 0 0-1.029.152 3.87 3.87 0 0 0-.968.383c-.141.084-.338.2-.338.39a3.075 3.075 0 0 1-.021.346.755.755 0 0 1-.113.272c-.064.082-.108.179.018.253.196.114.502.083.712.062a4.713 4.713 0 0 0 1.099-.252c.243-.085.613-.207.795-.407.149-.164.241-.286.284-.501.035-.177.05-.349.05-.529-.001-.166-.422-.168-.489-.169zM116.652 67.051c-.354-.686-3.043.331-2.823.757.844 1.638 1.939 3.122 2.923 4.677.436.689 3.04-.414 2.823-.757-.982-1.554-2.079-3.039-2.923-4.677zM120.744 64.713c-.294-.588-1.067-.563-1.624-.414-.35.094-1.485.598-1.199 1.17l1.169 2.339c.294.588 1.068.562 1.624.414.35-.094 1.486-.598 1.199-1.171l-1.169-2.338zM5.668 43.105c-1.486.359-3.006.571-4.481.975-.537.146-1.342.641-1.16 1.318.181.675 1.128.709 1.664.562 1.476-.403 2.995-.615 4.482-.975.541-.13 1.338-.651 1.16-1.318-.185-.685-1.124-.692-1.665-.562z"/><g><g fill="#FFF"><path d="M43.752 40.106c-.083-2.707-.514-5.396-.479-8.108.028-2.194.393-4.45-.363-6.554.047-.239.097-.477.141-.717.195-1.055-3.3-.497-3.849.468-.346.283-.523.621-.377.965.037.087.069.175.102.263-.662 3.233-1.584 6.364-2.645 9.498-.406 1.199-.896 2.37-1.31 3.565-.587-1.114-1.181-2.214-1.658-3.408-1.386-3.464-2.636-6.965-4.326-10.299.192-1.543-3.232-1.381-3.907.032-.816 1.709-.711 3.434-.442 5.262.303 2.061.356 4.086.381 6.167.048 4.012.361 8.016.421 12.027-.357.397-.466.889-.092 1.388.163.217.365.385.576.554.913.73 3.533.108 3.528-1.283-.014-4.16-.314-8.312-.424-12.471a99.221 99.221 0 0 1-.024-1.222l.173.438c.646 1.618 1.322 3.191 2.205 4.696.876 1.491 1.315 3.092 1.819 4.719-.19.219-.305.467-.234.715-.04.181.071.294.253.363.645.552 1.858.277 2.532-.007.29-.122.566-.263.834-.427.348-.215.891-.686.735-1.17l-.088-.281c.475-1.281.716-2.612.975-3.965.275-1.441.789-2.805 1.307-4.171.053.625.107 1.249.157 1.872.206 2.577.033 5.118.008 7.696-.009.854.054 1.648.221 2.484.068.345.37 1.824.283 1.904-.617.57-.438 1.268.389 1.45.923.203 2.1-.106 2.795-.749 1.209-1.117.638-2.871.364-4.28-.46-2.362.093-5.008.019-7.414zM52.192 40.788c-.074-2.007-.771-3.897-.781-5.925-.011-2.327.183-4.635-.156-6.949-.107-.732-4.093.101-3.953 1.059.312 2.129.199 4.268.161 6.412-.037 2.063.472 3.934.737 5.958.271 2.073-.085 4.195.15 6.271.11.971.758 2.768.09 3.612-.424.537 1.482.345 1.568.33.775-.143 1.809-.395 2.324-1.048.659-.835.198-2.448.054-3.387-.32-2.08-.115-4.236-.194-6.333zM68.671 37.438c-2.081-2.809-5.943-.787-8.64-1.554-1.39-.396-1.407-2.292-1.403-3.428.004-1.439-.115-2.757-.276-4.184-.119-1.061-.024-2.14.753-2.93.143-.146.866-.339.817-.342a8.098 8.098 0 0 1 1.077-.094c1.562-.067 4.654.234 4.056 2.506-.269 1.019 3.629.435 3.913-.643 1.224-4.64-7.352-3.749-9.774-3.106-2.231.592-4.692 1.862-4.819 4.438-.062 1.23.274 2.401.328 3.62.061 1.403-.2 2.802.291 4.155 1.092 3.01 5.57 1.59 7.849 1.761 3.88.29 2.722 5.519 2.772 7.955.027 1.3 1.192 3.461.213 4.549-.601.668-2 .706-2.817.774-.821.069-2.221.315-2.768-.465-1.002-1.431.093-3.834-.121-5.474-.122-.933-4.104-.096-3.953 1.059.346 2.651-1.412 6.2 2.424 6.655 2.464.293 5.238-.162 7.568-.936 1.207-.4 2.328-.951 3.272-1.81 1.045-.949.701-2.369.421-3.579-.682-2.943.739-6.333-1.183-8.927zM86.155 37.248c-.122-3.812-.696-7.582-.711-11.4-.009-1.989-4-1.317-3.993.346.015 3.641.501 7.232.688 10.862l.012.223c-1.967-.018-3.934.179-5.905.248.203-4.675-.617-9.311-.438-13.983.022-.587-3.909-.091-3.953 1.059-.172 4.516.593 8.997.457 13.514-.064 2.155-.247 4.303-.262 6.46-.008 1.105.173 2.204.332 3.293.147 1.008.488 2.352.183 3.349-.238.779 3.594.293 3.897-.701.55-1.794-.224-4.076-.408-5.892-.177-1.74-.04-3.53.084-5.296 2.048-.131 4.096-.3 6.135-.012.091 1.391.197 2.779.325 4.172.106 1.168.181 2.334.198 3.507.016 1.028.143 2.519-.223 3.492-.78 2.075 3.179 1.906 3.757.368.71-1.887.507-4.237.386-6.22-.151-2.468-.481-4.92-.561-7.389zM103.242 41.762c-.948-2.783-2.395-5.224-3.649-7.868 1.01-1.967 2.036-3.935 2.959-5.942.838-1.824 1.459-3.854 3.107-5.139.579-.451.555-.904-.258-.96-.883-.061-2.083.194-2.795.749-1.498 1.168-2.448 2.587-3.229 4.307a162.468 162.468 0 0 1-2.94 6.13c-.074.149-.15.298-.226.448-.494.318-.792.769-.645 1.277-.798 1.578-1.614 3.146-2.521 4.653-.302-5.584-.963-11.162-1.161-16.751-.045-1.281-4.007-.484-3.953 1.059.246 6.93 1.23 13.845 1.299 20.775l-.049.051c-.303.311-.191.498.053.606a61.474 61.474 0 0 1-.211 5.303c-.477.752.467 1.149 1.094 1.149h.098c.746 0 2.649-.353 2.742-1.376.193-2.119.254-4.234.234-6.349 1.605-1.731 2.916-3.663 4.093-5.687.766 1.494 1.495 3 2.007 4.625.868 2.766 2.32 5.308 3.159 8.087.55 1.822 4.497.745 3.952-1.059-.839-2.778-2.225-5.345-3.16-8.088zM126.96 37.085c-.212-.84-1.385-.857-2.292-.777-.013-.338-.021-.677-.036-1.016-.127-2.686-.168-5.428-.396-8.105-.211-2.479-1.599-3.368-4.008-3.276-2.438.093-5.277.532-7.55 1.416-2.632 1.023-4.096 2.961-4.601 5.733-.555 3.041.242 6.275.377 9.331.155 3.535.066 7.078.062 10.614 0 .579 3.952.031 3.953-1.059.003-2.801.043-5.602 0-8.402a53.08 53.08 0 0 0-.104-2.466c1.382-.599 3.721.013 5.097.143 1.117.105 2.188-.167 3.273-.294.021 2.333.108 4.678.204 7.008.049 1.194.481 3.563-.356 4.552-.44.521 1.493.347 1.568.333.801-.147 1.777-.404 2.324-1.05.958-1.13.46-3.824.405-5.173-.079-1.928-.103-3.859-.143-5.789 1.166-.152 2.44-.865 2.223-1.723zm-14.752-.152c-.104-1.257-.219-2.513-.306-3.777-.161-2.352.118-5.634 2.31-7.062.587-.383 1.691-.317 2.377-.442.979-.177 1.974-.393 2.855.192 1.221.81.92 3.69.918 4.913-.002 2.024.21 4.038.313 6.058a13.82 13.82 0 0 1-1.698.077c-2.307-.055-4.584-.418-6.769.041zM48.771 25.176a3.193 3.193 0 0 0 1.49-.529l.26-.219c.524-.338.979-.834.734-1.373-.509-1.115-.428-2.251-.42-3.445.007-.966-.972-1.257-1.797-1.185-.729.064-2.188.586-2.194 1.534-.007 1.002-.072 2.034.11 3.02-.049.113-.075.241-.105.358-.056.214.016.424.144.595l.002.135.015.338a.908.908 0 0 0 .433.535c.39.236.884.279 1.328.236z"/></g></g></symbol><symbol id="logo-footer" viewBox="0 0 101.615 34.056"><path d="M19.135 21.495c-.083-2.683-.51-5.347-.475-8.035.028-2.174.389-4.41-.36-6.495.047-.237.096-.473.14-.711.193-1.045-3.271-.492-3.813.464-.343.28-.519.615-.375.957.037.086.069.174.102.261-.656 3.204-1.57 6.306-2.621 9.412-.402 1.188-.888 2.349-1.298 3.533-.582-1.104-1.169-2.194-1.643-3.377-1.374-3.433-2.612-6.902-4.287-10.206.19-1.528-3.204-1.368-3.873.032-.809 1.694-.705 3.403-.438 5.214.3 2.042.353 4.05.377 6.111.047 3.976.358 7.943.417 11.919-.354.395-.461.881-.091 1.375.162.216.361.382.571.549.904.724 3.5.107 3.496-1.271-.014-4.123-.312-8.238-.42-12.358a98.054 98.054 0 0 1-.024-1.21l.171.434c.64 1.604 1.31 3.163 2.185 4.654.868 1.478 1.303 3.064 1.803 4.677-.189.217-.303.462-.233.708-.039.18.07.292.251.36.639.548 1.841.274 2.509-.007a6.07 6.07 0 0 0 .826-.424c.345-.212.883-.679.729-1.159l-.087-.279c.47-1.27.709-2.589.965-3.93.272-1.428.782-2.78 1.295-4.133.052.619.106 1.238.156 1.855.204 2.554.033 5.072.007 7.626-.008.847.054 1.633.219 2.461.068.343.367 1.808.281 1.887-.611.564-.433 1.257.385 1.437.915.201 2.081-.105 2.77-.742 1.198-1.106.632-2.845.361-4.241-.452-2.342.095-4.964.022-7.348zM27.499 22.17c-.074-1.988-.765-3.862-.774-5.872-.011-2.305.181-4.593-.155-6.886-.106-.725-4.056.1-3.917 1.05.309 2.11.197 4.229.159 6.354-.037 2.044.468 3.898.73 5.904.269 2.054-.084 4.157.149 6.213.109.962.75 2.743.089 3.58-.42.532 1.469.342 1.553.326.769-.142 1.793-.392 2.304-1.038.653-.828.196-2.426.053-3.357-.316-2.059-.114-4.195-.191-6.274zM43.828 18.851c-2.062-2.784-5.889-.78-8.561-1.54-1.377-.392-1.395-2.271-1.392-3.396.004-1.426-.114-2.732-.273-4.146-.119-1.052-.024-2.121.746-2.904.142-.144.859-.336.81-.339a8.132 8.132 0 0 1 1.067-.093c1.549-.066 4.613.232 4.019 2.483-.266 1.01 3.596.431 3.877-.637 1.213-4.598-7.284-3.714-9.686-3.078-2.21.588-4.648 1.846-4.775 4.399-.061 1.219.273 2.379.325 3.587.061 1.39-.198 2.776.289 4.118 1.082 2.982 5.52 1.576 7.778 1.745 3.845.287 2.697 5.469 2.748 7.883.027 1.288 1.181 3.429.211 4.507-.595.662-1.982.699-2.792.768-.813.068-2.201.312-2.742-.461-.993-1.418.091-3.799-.121-5.425-.121-.924-4.066-.095-3.917 1.05.342 2.627-1.399 6.145 2.402 6.596 2.441.289 5.191-.161 7.5-.928 1.196-.396 2.307-.942 3.243-1.793 1.035-.941.694-2.348.417-3.547-.677-2.918.731-6.279-1.173-8.849zM61.155 18.662c-.122-3.777-.69-7.513-.706-11.297-.008-1.971-3.963-1.305-3.957.343.015 3.608.497 7.167.682 10.764l.013.221c-1.949-.018-3.899.177-5.853.246.201-4.633-.611-9.227-.435-13.857.022-.582-3.874-.09-3.917 1.049-.171 4.475.587 8.915.453 13.392-.064 2.136-.245 4.264-.259 6.402-.007 1.095.171 2.183.329 3.263.146.999.484 2.331.182 3.318-.237.772 3.561.29 3.862-.694.544-1.778-.222-4.039-.405-5.839-.175-1.725-.039-3.499.083-5.248 2.03-.13 4.059-.297 6.08-.012.09 1.378.196 2.754.322 4.134a45.83 45.83 0 0 1 .196 3.475c.015 1.019.142 2.496-.221 3.461-.773 2.057 3.15 1.889 3.723.364.703-1.87.502-4.199.383-6.164-.148-2.443-.477-4.874-.555-7.321zM78.087 23.136c-.939-2.758-2.373-5.177-3.616-7.797 1.001-1.949 2.018-3.898 2.932-5.888.831-1.808 1.446-3.819 3.08-5.092.574-.447.55-.896-.255-.951-.875-.061-2.064.192-2.77.742-1.485 1.158-2.427 2.563-3.201 4.268a160.304 160.304 0 0 1-2.914 6.075l-.224.443c-.49.315-.785.762-.639 1.266-.792 1.563-1.6 3.117-2.499 4.61-.299-5.534-.955-11.061-1.15-16.6-.045-1.27-3.971-.479-3.917 1.049.243 6.868 1.219 13.719 1.286 20.587l-.047.051c-.301.308-.19.494.051.602a60.756 60.756 0 0 1-.209 5.254c-.472.745.463 1.139 1.084 1.139h.096c.739 0 2.626-.35 2.718-1.364.191-2.1.251-4.196.232-6.291 1.59-1.715 2.89-3.63 4.055-5.635.759 1.48 1.482 2.972 1.989 4.582.861 2.741 2.299 5.261 3.131 8.014.544 1.806 4.457.738 3.917-1.049-.829-2.753-2.204-5.297-3.13-8.015zM101.59 18.501c-.21-.832-1.372-.849-2.271-.77-.012-.335-.02-.671-.036-1.006-.125-2.661-.165-5.379-.392-8.032-.209-2.458-1.585-3.337-3.972-3.247-2.416.092-5.229.527-7.482 1.403-2.607 1.014-4.058 2.935-4.559 5.681-.549 3.014.24 6.219.373 9.246.154 3.503.066 7.014.062 10.519 0 .573 3.916.031 3.917-1.049.003-2.776.042-5.551 0-8.327a52.196 52.196 0 0 0-.102-2.444c1.369-.593 3.687.012 5.05.141 1.107.104 2.169-.166 3.244-.292.021 2.312.107 4.635.202 6.944.049 1.184.477 3.53-.354 4.511-.437.516 1.48.343 1.555.33.793-.146 1.761-.401 2.303-1.041.949-1.12.456-3.79.401-5.126-.078-1.91-.102-3.824-.141-5.737 1.154-.147 2.417-.854 2.202-1.704zm-14.618-.15c-.103-1.245-.217-2.49-.303-3.743-.16-2.331.117-5.583 2.29-6.999.58-.379 1.675-.315 2.354-.438.97-.176 1.956-.389 2.829.19 1.21.802.912 3.657.911 4.869-.003 2.005.207 4.001.31 6.003-.552.055-1.111.089-1.683.076-2.286-.053-4.544-.413-6.708.042zM24.108 6.7a3.157 3.157 0 0 0 1.477-.524l.256-.216c.52-.335.972-.827.728-1.361-.504-1.105-.423-2.231-.416-3.414.006-.958-.963-1.246-1.781-1.174-.723.063-2.168.581-2.175 1.52-.006.993-.071 2.016.109 2.992-.047.113-.074.239-.104.355-.055.212.016.42.142.59l.002.134.015.335a.901.901 0 0 0 .429.53c.388.233.878.275 1.318.233z"/></symbol><symbol id="logo-htmlacademy" viewBox="0 0 26.943 34.09"><path d="M13.62.017L13.472 0 0 1.412v24.661l13.473 8.017 13.43-7.99.042-.025V1.412L13.62.017zm11.399 12.11L13.495 5.334l-.001-.104-.087.05-.088-.056v.109L1.925 12.118V3.147l11.548-1.212L25.02 3.147v8.98zm-11.614-5.34L24.923 13.5l-4.479 2.64-7.093-4.221-.014 1.415 5.904 3.513-.86.507-5.03-2.992-.014 1.415 3.827 2.275-.782.523-3.031-1.787-.014 1.413 1.853 1.091-1.8 1.081-11.356-6.751 11.371-6.835zm-11.48 8.34l11.411 6.791.016 1.044-7.942-4.728-.015 1.416 7.979 4.795.018 1.076-7.973-4.74-.013 1.414 8.021 4.822.046.025 8.143-4.872-.011-5.177 3.415-2.036v10.021L13.472 31.85 1.925 24.979v-9.852z"/></symbol><symbol id="logo-mobile" viewBox="32.458 20.216 85.589 35.034"><path d="M36.638 46.517c-.014-3.472-.262-6.938-.356-10.409-.008-.34-.015-.681-.02-1.021l.146.364c.54 1.352 1.103 2.663 1.839 3.92.731 1.244 1.099 2.58 1.521 3.939-.159.182-.256.39-.196.596-.033.15.059.245.212.306.537.46 1.55.231 2.113-.008a5.42 5.42 0 0 0 .696-.355c.29-.181.744-.572.613-.977l-.072-.235c.396-1.068.598-2.179.813-3.308.23-1.206.659-2.345 1.092-3.485.043.521.088 1.044.129 1.56.174 2.147.028 4.27.008 6.422a9.896 9.896 0 0 0 .184 2.075c.059.287.31 1.521.235 1.58-.516.476-.366 1.061.326 1.211.771.169 1.753-.088 2.333-.625 1.009-.934.531-2.396.304-3.572-.385-1.973.077-4.181.017-6.189-.069-2.26-.43-4.503-.399-6.769.023-1.831.328-3.714-.303-5.471.039-.2.08-.398.117-.6.163-.879-2.754-.414-3.212.392-.29.235-.438.519-.313.806.031.071.057.146.084.219-.552 2.699-1.321 5.313-2.207 7.93-.339 1.001-.748 1.977-1.095 2.978-.49-.933-.986-1.851-1.384-2.847-1.155-2.891-2.199-5.813-3.61-8.596.16-1.289-2.698-1.153-3.261.02-.682 1.426-.592 2.866-.369 4.393.254 1.721.298 3.411.32 5.147.039 3.347.3 6.689.351 10.04-.298.331-.389.741-.078 1.158.136.182.306.321.482.46.756.632 2.945.113 2.94-1.049zM54.834 28.145c-.089-.613-3.416.084-3.3.885.259 1.776.167 3.561.136 5.352-.031 1.722.394 3.282.615 4.971.226 1.732-.071 3.502.126 5.235.09.812.632 2.312.074 3.018-.354.447 1.237.285 1.31.275.646-.12 1.509-.331 1.938-.875.552-.697.165-2.042.045-2.82-.267-1.734-.097-3.537-.162-5.286-.061-1.676-.644-3.254-.65-4.946-.009-1.953.153-3.877-.132-5.809zM57.958 34.791c.91 2.514 4.648 1.327 6.551 1.471 3.238.239 2.272 4.607 2.313 6.641.022 1.085.995 2.889.179 3.798-.502.556-1.669.589-2.352.646-.687.057-1.854.261-2.312-.39-.836-1.194.077-3.2-.102-4.568-.103-.78-3.424-.08-3.299.884.29 2.211-1.179 5.175 2.022 5.556 2.059.244 4.372-.136 6.317-.783 1.008-.334 1.943-.792 2.731-1.509.872-.794.585-1.979.352-2.987-.569-2.458.616-5.289-.987-7.454-1.738-2.345-4.962-.657-7.212-1.297-1.161-.33-1.175-1.911-1.17-2.86.002-1.202-.098-2.302-.231-3.491-.1-.887-.021-1.787.628-2.447.119-.121.723-.283.681-.28.299-.051.572-.062.9-.076 1.304-.056 3.885.195 3.386 2.092-.226.851 3.028.363 3.266-.53 1.021-3.874-6.138-3.131-8.159-2.593-1.863.494-3.916 1.555-4.023 3.704-.052 1.027.229 2.006.274 3.022.053 1.154-.165 2.322.247 3.451zM72.413 36.661c-.053 1.799-.208 3.593-.22 5.393-.006.921.146 1.842.278 2.75.122.841.407 1.964.152 2.796-.198.646 3 .242 3.254-.587.458-1.497-.188-3.402-.341-4.918-.147-1.451-.032-2.945.072-4.42 1.708-.11 3.418-.249 5.119-.011.076 1.163.164 2.321.272 3.48.088.976.151 1.948.164 2.929.015.855.12 2.099-.185 2.913-.651 1.731 2.655 1.59 3.136.3.592-1.577.423-3.537.323-5.194-.13-2.059-.404-4.106-.47-6.166-.102-3.183-.58-6.329-.594-9.51-.007-1.661-3.338-1.099-3.331.288.012 3.04.417 6.037.571 9.068.005.061.008.121.01.18-1.64-.016-3.281.149-4.929.207.171-3.902-.515-7.771-.364-11.672.02-.492-3.264-.077-3.3.883-.143 3.781.496 7.521.383 11.291zM86.493 42.032c-.254.259-.159.414.045.506a50.736 50.736 0 0 1-.178 4.424c-.396.63.39.96.912.96h.082c.622 0 2.209-.293 2.289-1.148.162-1.769.211-3.535.196-5.299 1.337-1.446 2.434-3.057 3.416-4.748.64 1.248 1.247 2.505 1.676 3.861.725 2.31 1.938 4.431 2.637 6.75.459 1.521 3.754.621 3.298-.885-.701-2.319-1.856-4.462-2.638-6.75-.791-2.322-1.998-4.361-3.046-6.568.845-1.641 1.699-3.283 2.47-4.96.698-1.524 1.219-3.216 2.594-4.289.483-.376.464-.755-.216-.801-.737-.054-1.738.159-2.334.625-1.25.974-2.042 2.158-2.694 3.595a136.28 136.28 0 0 1-2.455 5.117l-.188.373c-.412.264-.66.642-.539 1.064-.666 1.316-1.347 2.627-2.104 3.885-.252-4.661-.803-9.317-.969-13.983-.036-1.068-3.345-.403-3.297.886.204 5.785 1.024 11.557 1.083 17.34l-.04.045zM118.027 35.8c-.177-.701-1.155-.716-1.914-.648-.01-.281-.017-.566-.029-.849-.106-2.241-.139-4.53-.329-6.765-.176-2.069-1.335-2.812-3.346-2.734-2.035.077-4.404.443-6.302 1.183-2.197.853-3.421 2.471-3.841 4.784-.464 2.539.201 5.238.313 7.789.13 2.951.056 5.909.054 8.859 0 .484 3.297.027 3.297-.884.004-2.338.037-4.676 0-7.014a45.318 45.318 0 0 0-.085-2.057c1.155-.499 3.106.01 4.255.118.933.089 1.826-.138 2.732-.244.017 1.946.09 3.905.17 5.851.042.997.402 2.975-.297 3.799-.368.436 1.249.288 1.31.28.668-.124 1.482-.338 1.939-.87.8-.942.384-3.192.338-4.316-.065-1.611-.086-3.223-.121-4.834.973-.137 2.037-.733 1.856-1.448zm-6.662-.162c-1.928-.046-3.828-.349-5.651.036-.086-1.051-.183-2.098-.255-3.154-.134-1.962.099-4.702 1.928-5.896.492-.318 1.413-.264 1.984-.368.819-.147 1.647-.328 2.384.16 1.018.676.769 3.08.766 4.101-.002 1.69.177 3.37.262 5.059-.466.046-.939.072-1.418.062zM51.159 24.322a.578.578 0 0 0 .119.497l.002.114.013.282a.766.766 0 0 0 .362.446c.325.196.737.232 1.108.196a2.676 2.676 0 0 0 1.245-.439l.216-.183c.438-.282.818-.697.612-1.146-.424-.932-.358-1.88-.35-2.87.005-.808-.812-1.051-1.501-.989-.608.054-1.827.489-1.831 1.279-.007.836-.062 1.698.092 2.522-.04.088-.064.194-.087.291zM112.736 53.505c-1.558-.585-3.283-.615-4.851-.787-1.603-.17-3.245-.41-4.884-.562-1.637.053-3.31.027-4.972.129l-4.88.268c-6.487.289-12.999.253-19.517.107-6.517-.123-13.045-.477-19.63-.453-3.288.008-6.565.099-9.862.25-1.632.283-3.239.501-4.904.913-1.615.399-3.145.907-4.794 1.048 1.623.362 3.341.292 4.962.297 1.579.01 3.243.143 4.872.231 3.229-.172 6.487-.246 9.733-.25 6.487-.024 13.015.329 19.565.451 6.548.146 13.114.186 19.683-.11l4.907-.269c1.603-.071 3.198-.127 4.829-.067 1.628-.148 3.253-.33 4.918-.532 1.664-.238 3.22-.627 4.854-.509l.074.006.006-.055c.021-.178-.04-.323-.04-.479-.033.119-.038.256-.069.373z"/></symbol><symbol id="logo-tablet" viewBox="19.137 15.003 112.389 46.087"><path d="M129.364 56.884c4.394.868.843-35.858.147-38.311-1.96-6.569-26.677-2.144-32.18-1.717-12.723.987-25.189-.96-37.611-.376-6.205.292-34.854-1.813-37.519 1.986-5.048 7.208-2.652 25.797-1.278 35.076-4.043.779 2.309 4.154 3.138 4.897 6.314 2.192 16.358-.219 23.007.396 15.434 1.472 31.797-2.194 47.276-.955 4.496 1.144 9.604 1.019 14.224 1.239 3.414 5.572 19.664-2.461 20.796-2.235-.1-.02.507.1 0 0z"/><g fill="#FFF"><path d="M45.195 39.413c-.079-2.546-.484-5.074-.451-7.624.026-2.063.37-4.185-.341-6.164.043-.225.091-.449.132-.675.184-.992-3.103-.467-3.62.44-.325.266-.492.584-.354.908.035.082.065.165.096.247-.623 3.041-1.49 5.985-2.487 8.932-.382 1.128-.843 2.229-1.232 3.354-.553-1.049-1.111-2.083-1.56-3.206-1.303-3.257-2.479-6.55-4.068-9.685.181-1.452-3.039-1.299-3.674.03-.767 1.607-.668 3.229-.416 4.948.285 1.938.334 3.842.358 5.8.045 3.771.339 7.537.396 11.311-.335.372-.438.835-.087 1.305.153.203.344.362.542.521.858.687 3.323.101 3.318-1.207-.013-3.911-.295-7.815-.399-11.727-.01-.383-.017-.766-.022-1.149l.163.411c.607 1.522 1.243 3.001 2.073 4.416.824 1.401 1.237 2.908 1.711 4.438-.179.206-.288.439-.221.674-.038.169.067.275.238.342.606.519 1.747.261 2.381-.008a5.73 5.73 0 0 0 .784-.401c.327-.202.838-.645.691-1.1l-.083-.265c.447-1.204.674-2.456.917-3.728.259-1.356.742-2.64 1.229-3.924.049.587.1 1.176.147 1.762.194 2.422.031 4.812.008 7.236-.009.803.05 1.55.208 2.337.064.324.348 1.714.266 1.79-.581.535-.412 1.192.366 1.363.868.19 1.975-.101 2.628-.705 1.137-1.05.6-2.699.342-4.024-.429-2.221.091-4.709.021-6.973zM53.132 40.056c-.069-1.888-.725-3.666-.734-5.573-.01-2.188.172-4.358-.146-6.535-.101-.688-3.849.095-3.717.996.293 2.002.187 4.014.151 6.029-.035 1.941.444 3.699.694 5.603.254 1.95-.081 3.945.141 5.897.103.913.712 2.603.084 3.398-.398.505 1.394.322 1.474.31.729-.136 1.702-.372 2.186-.987.62-.784.186-2.3.051-3.185-.302-1.955-.11-3.983-.184-5.953zM68.629 36.903c-1.957-2.641-5.589-.739-8.125-1.46-1.308-.372-1.323-2.155-1.319-3.224.003-1.353-.108-2.592-.26-3.935-.112-.998-.022-2.013.708-2.755.135-.137.815-.318.768-.322a7.685 7.685 0 0 1 1.013-.088c1.469-.063 4.376.22 3.814 2.356-.253.958 3.413.409 3.68-.604 1.15-4.364-6.914-3.526-9.192-2.921-2.098.557-4.412 1.751-4.531 4.174-.059 1.156.257 2.258.309 3.404.057 1.319-.188 2.635.273 3.907 1.027 2.831 5.238 1.495 7.38 1.656 3.65.271 2.561 5.19 2.608 7.48.025 1.224 1.121 3.255.2 4.278-.565.627-1.881.664-2.649.729-.772.064-2.089.296-2.604-.438-.942-1.345.087-3.605-.114-5.146-.115-.879-3.859-.091-3.717.995.325 2.492-1.328 5.83 2.279 6.258 2.318.275 4.926-.152 7.118-.881 1.135-.376 2.188-.894 3.077-1.701.982-.892.659-2.228.396-3.365-.641-2.769.695-5.956-1.112-8.397zM85.07 36.725c-.114-3.584-.653-7.129-.669-10.719-.007-1.871-3.762-1.239-3.754.325.014 3.424.472 6.801.646 10.215l.012.209c-1.85-.017-3.699.169-5.553.233.191-4.396-.58-8.756-.411-13.149.021-.553-3.677-.085-3.718.995-.162 4.248.558 8.461.43 12.709-.061 2.026-.232 4.046-.247 6.074-.007 1.039.164 2.074.312 3.098.138.947.458 2.212.172 3.149-.224.731 3.379.275 3.666-.659.516-1.687-.211-3.834-.383-5.541-.167-1.636-.039-3.319.078-4.98 1.925-.123 3.852-.281 5.77-.011.084 1.308.186 2.613.305 3.924.101 1.099.171 2.194.187 3.298.016.966.135 2.367-.21 3.282-.733 1.953 2.99 1.792 3.533.347.667-1.775.477-3.984.363-5.85-.144-2.32-.454-4.627-.529-6.949zM101.139 40.971c-.892-2.617-2.252-4.913-3.431-7.399.95-1.85 1.915-3.7 2.782-5.588.788-1.715 1.373-3.624 2.922-4.833.545-.424.522-.85-.243-.902-.83-.058-1.958.182-2.629.704-1.408 1.099-2.301 2.433-3.035 4.05a156.23 156.23 0 0 1-2.765 5.765c-.069.14-.141.28-.213.421-.465.3-.744.723-.606 1.201-.75 1.484-1.518 2.959-2.371 4.375-.283-5.25-.905-10.496-1.093-15.752-.041-1.205-3.768-.455-3.715.996.23 6.517 1.155 13.021 1.221 19.536l-.047.048c-.285.293-.179.469.051.571a57.736 57.736 0 0 1-.199 4.985c-.448.709.439 1.081 1.029 1.081h.092c.701 0 2.49-.331 2.579-1.294.182-1.992.237-3.981.221-5.971 1.508-1.627 2.741-3.444 3.849-5.348.72 1.405 1.405 2.821 1.887 4.35.816 2.602 2.182 4.991 2.971 7.604.518 1.713 4.229.701 3.717-.996-.792-2.611-2.093-5.024-2.974-7.604zM123.443 36.573c-.199-.791-1.302-.807-2.156-.731-.012-.318-.02-.637-.033-.956-.12-2.525-.158-5.104-.371-7.622-.198-2.331-1.505-3.167-3.77-3.08-2.293.087-4.962.5-7.101 1.332-2.475.962-3.852 2.784-4.326 5.391-.522 2.86.227 5.901.354 8.775.146 3.324.062 6.655.059 9.98 0 .545 3.717.03 3.717-.996.004-2.633.041-5.268 0-7.9a50.827 50.827 0 0 0-.097-2.318c1.3-.563 3.499.011 4.792.133 1.052.1 2.059-.155 3.079-.275.02 2.193.101 4.4.191 6.591.047 1.122.453 3.351-.335 4.279-.414.491 1.405.326 1.475.314.753-.139 1.671-.381 2.186-.988.901-1.062.433-3.597.381-4.863-.074-1.814-.097-3.63-.135-5.443 1.095-.145 2.294-.816 2.09-1.623zm-13.872-.143c-.099-1.183-.207-2.364-.288-3.552-.15-2.212.111-5.298 2.172-6.642.553-.36 1.59-.298 2.235-.416.922-.166 1.856-.369 2.685.181 1.148.762.865 3.47.863 4.62-.002 1.904.198 3.797.295 5.698-.524.052-1.056.084-1.597.073-2.169-.053-4.311-.394-6.365.038zM49.915 25.373a2.99 2.99 0 0 0 1.401-.497l.244-.206c.493-.318.92-.785.69-1.291-.479-1.049-.403-2.117-.395-3.241.006-.908-.914-1.182-1.689-1.114-.686.061-2.058.551-2.063 1.443-.007.942-.068 1.913.104 2.84-.046.106-.071.226-.099.336-.053.201.015.399.135.56l.002.127.014.318c.07.221.205.388.407.503.367.222.832.263 1.249.222z"/></g></symbol><symbol id="symbols"/></svg>